<svg width="32" height="30" viewBox="0 0 32 30" fill="none" xmlns="http://www.w3.org/2000/svg">
<g clip-path="url(#clip0_200_587)">
<g clip-path="url(#clip1_200_587)">
<path d="M27.0738 6.24089V23.3763C27.0738 24.7282 25.9778 25.8242 24.6258 25.8242H20.0358C19.6978 25.8242 19.4239 25.5503 19.4239 25.2122V17.8684H22.288C22.5789 17.8686 22.8296 17.6638 22.8878 17.3789L23.3284 15.1758C23.3466 15.0868 23.3243 14.9942 23.2676 14.9233C23.2107 14.8525 23.1254 14.8104 23.0346 14.8086H19.4239V10.8307C19.4239 10.6617 19.5609 10.5247 19.7299 10.5247H22.7898C23.1279 10.5247 23.4018 10.2508 23.4018 9.91277V8.07683C23.4018 7.73884 23.1279 7.46484 22.7898 7.46484H19.7299C17.7019 7.46484 16.0579 9.1088 16.0579 11.1367V14.8086H14.5524C14.2144 14.8086 13.9404 15.0825 13.9404 15.4206V17.2566C13.9404 17.5945 14.2144 17.8684 14.5524 17.8684H16.0579V25.2122C16.0579 25.5503 15.784 25.8242 15.4458 25.8242H7.48998C6.13799 25.8242 5.04199 24.7282 5.04199 23.3763V6.24089C5.04199 4.88894 6.13799 3.79297 7.48998 3.79297H24.6258C25.9778 3.79297 27.0738 4.88894 27.0738 6.24089Z" fill="white"/>
</g>
</g>
<defs>
<clipPath id="clip0_200_587">
<rect width="30.8906" height="29.4062" fill="white" transform="translate(0.150391 0.121094)"/>
</clipPath>
<clipPath id="clip1_200_587">
<rect width="30.875" height="29.375" fill="white" transform="translate(0.150391 0.121094)"/>
</clipPath>
</defs>
</svg>
