<svg width="31" height="33" viewBox="0 0 31 33" fill="none" xmlns="http://www.w3.org/2000/svg">
<path d="M10.2228 4.14844C6.74667 4.14844 3.92773 7.15394 3.92773 10.8601V21.5989C3.92773 25.3051 6.74667 28.3106 10.2228 28.3106H20.2949C23.7711 28.3106 26.59 25.3051 26.59 21.5989V10.8601C26.59 7.15394 23.7711 4.14844 20.2949 4.14844H10.2228ZM22.813 6.83312C23.508 6.83312 24.072 7.43449 24.072 8.17546C24.072 8.91644 23.508 9.51781 22.813 9.51781C22.118 9.51781 21.554 8.91644 21.554 8.17546C21.554 7.43449 22.118 6.83312 22.813 6.83312ZM15.2589 9.51781C18.735 9.51781 21.554 12.5233 21.554 16.2295C21.554 19.9357 18.735 22.9412 15.2589 22.9412C11.7827 22.9412 8.9638 19.9357 8.9638 16.2295C8.9638 12.5233 11.7827 9.51781 15.2589 9.51781ZM15.2589 12.2025C14.2571 12.2025 13.2964 12.6268 12.5881 13.382C11.8798 14.1372 11.4818 15.1615 11.4818 16.2295C11.4818 17.2976 11.8798 18.3218 12.5881 19.0771C13.2964 19.8323 14.2571 20.2565 15.2589 20.2565C16.2606 20.2565 17.2213 19.8323 17.9297 19.0771C18.638 18.3218 19.0359 17.2976 19.0359 16.2295C19.0359 15.1615 18.638 14.1372 17.9297 13.382C17.2213 12.6268 16.2606 12.2025 15.2589 12.2025Z" fill="white"/>
</svg>
